<?xml version="1.0" standalone="no"?>
<!DOCTYPE svg PUBLIC "-//W3C//DTD SVG 20010904//EN"
 "http://www.w3.org/TR/2001/REC-SVG-20010904/DTD/svg10.dtd">
<svg version="1.0" xmlns="http://www.w3.org/2000/svg"
 width="400.000000pt" height="400.000000pt" viewBox="0 0 400.000000 400.000000"
 preserveAspectRatio="xMidYMid meet">
<metadata>
Created by potrace 1.14, written by Peter Selinger 2001-2017
</metadata>
<g transform="translate(0.000000,400.000000) scale(0.100000,-0.100000)"
fill="#000000" stroke="none">
<path d="M0 2000 l0 -2000 2000 0 2000 0 0 404 c0 259 -4 407 -10 411 -6 3
-10 12 -10 18 0 7 4 6 10 -3 6 -10 10 546 10 1578 l0 1592 -2000 0 -2000 0 0
-2000z m1820 551 c195 -65 532 -179 748 -252 l392 -133 0 -181 0 -180 -278
-88 c-259 -83 -397 -127 -978 -313 l-231 -74 -156 0 -157 0 -2 626 c-2 345 -1
646 1 670 l3 44 152 0 152 0 354 -119z m-1593 -177 c-3 -3 -12 -4 -19 -1 -8 3
-5 6 6 6 11 1 17 -2 13 -5z m2981 -1606 c-5 -16 -48 -24 -48 -10 0 11 17 20
38 21 8 1 12 -5 10 -11z"/>
<path d="M1460 2001 c0 -245 3 -351 11 -351 6 0 250 67 542 149 293 82 553
155 580 162 47 11 62 33 30 43 -10 3 -265 80 -568 172 -302 92 -560 169 -572
172 l-23 4 0 -351z m680 -137 c0 -8 -4 -12 -10 -9 -5 3 -10 10 -10 16 0 5 5 9
10 9 6 0 10 -7 10 -16z"/>
</g>
</svg>
