<svg stroke="transparent" xmlns="http://www.w3.org/2000/svg" width="73.14" height="10.999" viewBox="0 0 73.14 10.999" cursor="pointer"><path fill="#13FF00" class="a" d="M1187.5,1280.94h-2.368v10.473H1196v-2.21h-8.5Z" transform="translate(-1185.134 -1280.677)"></path><path fill="#13FF00" class="a" d="M1292.718,1279.3c-4.631,0-7.921,2.184-7.921,5.473,0,3.526,3,5.526,7.947,5.526,5.079,0,7.92-2.21,7.92-5.526C1300.664,1281.487,1297.349,1279.3,1292.718,1279.3Zm.026,8.736c-3.5,0-5.473-1.184-5.473-3.263,0-1.921,2.184-3.21,5.447-3.21,3.289,0,5.473,1.289,5.473,3.21C1298.191,1286.855,1296.217,1288.039,1292.744,1288.039Z" transform="translate(-1268.772 -1279.303)"></path><path fill="#13FF00" class="a" d="M1430.362,1286.15c0,2.079-1.658,3.263-4.631,3.263-3.052,0-4.763-1.184-4.763-3.263v-5.21H1418.6v5.21c0,3.526,2.579,5.526,7.131,5.526,4.473,0,7-2,7-5.526v-5.21h-2.368Z" transform="translate(-1381.061 -1280.677)"></path><path fill="#13FF00" class="a" d="M1555.157,1280.94h-2.368v10.473h2.368l11.657-3.736v-2.789Zm9.183,5.42-9.183,2.579v-5.526l9.183,2.789Z" transform="translate(-1493.675 -1280.677)"></path></svg>